<svg width="41" height="41" viewBox="0 0 41 41" fill="none" xmlns="http://www.w3.org/2000/svg">
<path d="M36.3056 9.2141C35.0808 9.74244 33.7479 10.1227 32.3751 10.2708C33.8004 9.42398 34.8678 8.08617 35.377 6.50835C34.0395 7.30402 32.5742 7.86196 31.0462 8.15742C30.4076 7.47468 29.6352 6.93078 28.7771 6.55961C27.9191 6.18844 26.9938 5.99795 26.059 6.00002C22.2765 6.00002 19.2345 9.06601 19.2345 12.8284C19.2345 13.3568 19.2986 13.8851 19.4026 14.3935C13.739 14.0973 8.68769 11.3915 5.32951 7.24883C4.71762 8.29397 4.39696 9.48398 4.40091 10.6951C4.40091 13.0646 5.60569 15.154 7.44288 16.3828C6.3602 16.3401 5.30286 16.0425 4.35688 15.5142V15.5982C4.35688 18.9164 6.7024 21.6662 9.82843 22.2986C9.24148 22.4511 8.63769 22.529 8.03126 22.5307C7.58698 22.5307 7.1667 22.4867 6.74243 22.4267C7.60699 25.1324 10.1246 27.0977 13.1226 27.1617C10.777 28.9989 7.83914 30.0796 4.64907 30.0796C4.0767 30.0796 3.54836 30.0596 3 29.9956C6.02596 31.9368 9.61629 33.0576 13.4828 33.0576C26.0349 33.0576 32.9034 22.6588 32.9034 13.633C32.9034 13.3368 32.9034 13.0406 32.8834 12.7444C34.2122 11.7718 35.377 10.567 36.3056 9.2141Z" fill="#EFEBEA"/>
</svg>
